# xmcd
#
# Track frame offsets: 
#        150
#        5744
#        22796
#        43430
#        58191
#        85826
#        104086
#        117910
#        136124
#        166735
#
# Disc length: 2394 seconds
#
# Revision: 2
# Processed by: cddbd v1.5.2PL0 Copyright (c) Steve Scherf et al.
# Submitted via: ExactAudioCopy v0.99pb5
#
DISCID=8009580a
DTITLE=All The Saints - Fire On Corridor X
DYEAR=2008
DGENRE=Rock
TTITLE0=Shadow, Shadow
TTITLE1=Sheffield
TTITLE2=Farmacia
TTITLE3=Regal Regalia
TTITLE4=Hornett
TTITLE5=Papering Fix
TTITLE6=Leeds
TTITLE7=Fire On Corridor X
TTITLE8=Outs
TTITLE9=Mil Mil
EXTD=
EXTT0=
EXTT1=
EXTT2=
EXTT3=
EXTT4=
EXTT5=
EXTT6=
EXTT7=
EXTT8=
EXTT9=
PLAYORDER=
